<?xml version="1.0" encoding="utf-8"?>
<!-- Generator: Adobe Illustrator 27.0.1, SVG Export Plug-In . SVG Version: 6.00 Build 0)  -->
<svg version="1.1" id="Layer_1" xmlns="http://www.w3.org/2000/svg" xmlns:xlink="http://www.w3.org/1999/xlink" x="0px" y="0px"
	 viewBox="0 0 792 612" style="enable-background:new 0 0 792 612;" xml:space="preserve">
<style type="text/css">
	.st0{fill:#EF9A8E;}
	.st1{fill:none;}
	.st2{font-family:'FrutigerLTStd-Bold';}
	.st3{font-size:5.3427px;}
	.st4{font-family:'FrutigerLTStd-Roman';}
	.st5{font-size:4.1098px;}
</style>
<rect x="57.19" y="78.14" class="st0" width="23.08" height="22.19"/>
<polygon class="st0" points="88.11,71.21 82.13,78.27 82.34,100.33 105.42,100.33 105.42,78.27 99.65,71.21 "/>
<rect x="157.79" y="71.04" class="st0" width="36.25" height="29.29"/>
<rect x="132.64" y="71.04" class="st0" width="23.08" height="29.29"/>
<g>
	<defs>
		<rect id="SVGID_1_" x="57.19" y="71.04" width="136.85" height="29.29"/>
	</defs>
	<clipPath id="SVGID_00000012461945008383131440000010654453379040322211_">
		<use xlink:href="#SVGID_1_"  style="overflow:visible;"/>
	</clipPath>
</g>
<path class="st0" d="M107.55,79.62l-0.06,20.71h23.08V79.62c0,0-1.24-8.58-11.54-8.58S107.55,79.62,107.55,79.62z"/>
<rect x="57.19" y="88.35" class="st1" width="23.08" height="10.11"/>
<text transform="matrix(1 0 0 1 62.0435 92.3594)"><tspan x="0" y="0" class="st2 st3">0.455</tspan><tspan x="-1.19" y="4.93" class="st4 st5">BAL-205</tspan></text>
<rect x="82.24" y="88.35" class="st1" width="23.08" height="10.11"/>
<text transform="matrix(1 0 0 1 87.0923 92.3594)"><tspan x="0" y="0" class="st2 st3">0.455</tspan><tspan x="-1.19" y="4.93" class="st4 st5">BAL-205</tspan></text>
<rect x="107.49" y="88.35" class="st1" width="23.08" height="10.11"/>
<text transform="matrix(1 0 0 1 112.3467 92.3594)"><tspan x="0" y="0" class="st2 st3">0.455</tspan><tspan x="-1.19" y="4.93" class="st4 st5">BAL-205</tspan></text>
<rect x="132.64" y="88.35" class="st1" width="23.08" height="10.11"/>
<text transform="matrix(1 0 0 1 137.4985 92.3594)"><tspan x="0" y="0" class="st2 st3">0.455</tspan><tspan x="-1.19" y="4.93" class="st4 st5">BAL-205</tspan></text>
<rect x="157.79" y="88.35" class="st1" width="36.25" height="10.11"/>
<text transform="matrix(1 0 0 1 169.2339 92.3594)"><tspan x="0" y="0" class="st2 st3">0.455</tspan><tspan x="-1.19" y="4.93" class="st4 st5">BAL-205</tspan></text>
</svg>
